<?xml version="1.0" encoding="UTF-8"?>
<svg id="Layer_2" data-name="Layer 2" xmlns="http://www.w3.org/2000/svg" viewBox="0 0 882 1276.8">
  <defs>
    <style>
      .cls-1 {
        fill: #fff;
      }

      .cls-2 {
        fill: #be69ff;
      }

      .cls-3 {
        fill: #1f0e2c;
      }
    </style>
  </defs>
  <g id="Layer_2-2" data-name="Layer 2">
    <g>
      <path class="cls-3" d="M875.99,6.01c-3.71-3.71-8.84-6.01-14.51-6.01H20.51c-5.66,0-10.79,2.29-14.51,6.01C2.29,9.72,0,14.85,0,20.51v1235.78c0,5.66,2.29,10.79,6.01,14.51s8.84,6.01,14.51,6.01h840.98c5.66,0,10.79-2.29,14.51-6.01,3.71-3.71,6.01-8.84,6.01-14.51V20.51c0-5.66-2.29-10.79-6.01-14.51Z"/>
      <g>
        <path class="cls-1" d="M112.78,145.8c-7.7-.08-13.98-1.81-18.82-5.18-4.84-3.37-8.06-7.88-9.65-13.52.87-1.51,2.28-2.72,4.23-3.63,1.94-.91,3.79-1.29,5.54-1.13,1.43,4.29,3.81,7.54,7.15,9.77,3.33,2.22,7.38,3.3,12.15,3.22,5.08-.08,9.17-1.41,12.27-3.99,3.1-2.58,4.65-6.09,4.65-10.54,0-6.75-3.53-11.12-10.6-13.1l-15.84-4.41c-5.56-1.59-9.93-4.31-13.1-8.16-3.18-3.85-4.76-8.44-4.76-13.76,0-4.76,1.21-9.01,3.63-12.75,2.42-3.73,5.76-6.65,10.01-8.75,4.25-2.1,9.11-3.16,14.59-3.16,6.11,0,11.61,1.29,16.5,3.87,4.88,2.58,8.32,5.98,10.3,10.18-.71,1.27-1.89,2.52-3.51,3.75-1.63,1.23-3.39,2.16-5.3,2.8-3.89-6.75-10.01-10.12-18.34-10.12-4.92,0-8.93,1.25-12.03,3.75-3.1,2.5-4.65,5.74-4.65,9.71,0,6.35,4.09,10.68,12.27,12.98l14.06,3.81c5.64,1.51,10.04,4.31,13.22,8.4,3.17,4.09,4.76,9.03,4.76,14.83,0,5.08-1.25,9.53-3.75,13.34-2.5,3.81-5.92,6.73-10.24,8.75-4.33,2.02-9.23,3.04-14.71,3.04Z"/>
        <path class="cls-1" d="M193.19,145.92c-8.1,0-15.07-1.79-20.9-5.36-5.84-3.57-10.3-8.58-13.4-15.01-3.1-6.43-4.65-13.98-4.65-22.63,0-9.21,1.69-17.29,5.06-24.24,3.37-6.95,8.08-12.37,14.11-16.26,6.03-3.89,12.94-5.84,20.73-5.84,6.19,0,11.85,1.25,16.97,3.75,5.12,2.5,9.27,5.98,12.45,10.42-.4,1.43-1.41,2.9-3.04,4.41-1.63,1.51-3.24,2.5-4.82,2.98-2.86-3.73-6.12-6.47-9.77-8.22-3.65-1.75-7.58-2.62-11.79-2.62-5.64,0-10.6,1.47-14.89,4.41-4.29,2.94-7.62,7.03-10.01,12.27s-3.57,11.36-3.57,18.34c0,6.59,1.09,12.35,3.28,17.27,2.18,4.92,5.4,8.75,9.65,11.49,4.25,2.74,9.43,4.11,15.54,4.11,5.32,0,9.93-1.07,13.82-3.22,3.89-2.14,7.42-5.16,10.6-9.05,1.51.48,3.06,1.35,4.65,2.62,1.59,1.27,2.7,2.54,3.34,3.81-3.65,5.4-8.36,9.51-14.12,12.33-5.76,2.82-12.17,4.23-19.24,4.23Z"/>
        <path class="cls-1" d="M244.17,145.92c-1.75-.24-3.5-.68-5.24-1.31-1.75-.63-3.22-1.55-4.41-2.74l33.35-83.62c1.27-.55,2.78-.83,4.53-.83,1.98,0,3.53.28,4.65.83l33.59,83.5c-1.03,1.11-2.42,2.01-4.17,2.68-1.75.67-3.69,1.17-5.84,1.49l-9.41-23.7h-37.76l-9.29,23.7ZM257.51,111.97h29.66l-14.89-37.52-14.77,37.52Z"/>
        <path class="cls-1" d="M332.79,145.09c-1.99,0-3.81-.28-5.48-.83V58.25c1.67-.55,3.53-.83,5.6-.83.71,0,1.45.04,2.2.12.75.08,1.53.24,2.32.48l46.45,65.63V58.25c1.67-.55,3.53-.83,5.6-.83,1.75,0,3.57.28,5.48.83v86c-1.35.55-2.86.83-4.53.83-1.83,0-3.53-.28-5.12-.83l-46.93-66.35v66.35c-1.91.55-3.77.83-5.6.83Z"/>
        <path class="cls-1" d="M460.36,144.73c-.88,0-1.77-.04-2.68-.12-.91-.08-1.85-.2-2.8-.36V58.25h50.15c.48,1.43.71,3.14.71,5.12s-.24,3.73-.71,5.24h-39.07v26.68h35.26c.87,3.5.87,6.95,0,10.36h-35.26v38.59c-.88.16-1.79.28-2.74.36-.95.08-1.91.12-2.86.12Z"/>
        <path class="cls-1" d="M557.43,145.92c-7.62,0-14.33-1.89-20.13-5.66-5.8-3.77-10.32-9.01-13.58-15.72-3.26-6.71-4.88-14.47-4.88-23.29s1.63-16.58,4.88-23.29c3.26-6.71,7.78-11.95,13.58-15.72,5.8-3.77,12.51-5.66,20.13-5.66s14.31,1.89,20.07,5.66c5.76,3.77,10.24,8.99,13.46,15.66,3.22,6.67,4.82,14.45,4.82,23.35s-1.61,16.58-4.82,23.29c-3.22,6.71-7.7,11.95-13.46,15.72-5.76,3.77-12.45,5.66-20.07,5.66ZM557.31,135.2c5.48,0,10.24-1.41,14.29-4.23,4.05-2.82,7.19-6.79,9.41-11.91,2.22-5.12,3.33-11.06,3.33-17.81s-1.11-12.78-3.33-17.87c-2.22-5.08-5.36-9.03-9.41-11.85-4.05-2.82-8.78-4.23-14.17-4.23s-10.15,1.41-14.23,4.23c-4.09,2.82-7.27,6.77-9.53,11.85-2.26,5.08-3.39,11.04-3.39,17.87s1.11,12.69,3.33,17.81c2.22,5.12,5.38,9.09,9.47,11.91,4.09,2.82,8.83,4.23,14.23,4.23Z"/>
        <path class="cls-1" d="M619.73,145.09c-1.99,0-3.81-.28-5.48-.83V58.25h28.47c5.32,0,10.26.81,14.83,2.44,4.57,1.63,8.26,4.27,11.08,7.92,2.82,3.65,4.23,8.46,4.23,14.41,0,4.61-.91,8.56-2.74,11.85-1.83,3.3-4.17,6-7.03,8.1-2.86,2.1-5.92,3.75-9.17,4.94l21.32,29.9c-.64,1.67-1.77,3.18-3.4,4.53-1.63,1.35-3.39,2.22-5.3,2.62l-24.54-34.42c-.88.08-1.71.12-2.5.12h-14.17v33.59c-1.91.55-3.77.83-5.6.83ZM643.67,68.49h-18.34v31.92h14.17c2.46,0,4.98-.26,7.56-.77,2.58-.52,4.94-1.39,7.09-2.62,2.14-1.23,3.89-2.96,5.24-5.18,1.35-2.22,2.03-5.04,2.03-8.46,0-4.84-1.67-8.54-5-11.08-3.33-2.54-7.58-3.81-12.75-3.81Z"/>
        <path class="cls-1" d="M732.65,145.92c-1.75-.24-3.5-.68-5.24-1.31-1.75-.63-3.22-1.55-4.41-2.74l33.35-83.62c1.27-.55,2.78-.83,4.53-.83,1.98,0,3.53.28,4.65.83l33.59,83.5c-1.03,1.11-2.42,2.01-4.17,2.68-1.75.67-3.69,1.17-5.84,1.49l-9.41-23.7h-37.76l-9.29,23.7ZM745.99,111.97h29.66l-14.89-37.52-14.77,37.52Z"/>
        <path class="cls-1" d="M65.91,287.19v-86h25.25c8.26,0,14.71,1.97,19.36,5.9,4.65,3.93,6.97,9.43,6.97,16.5,0,7.86-3.33,13.94-10.01,18.22,4.84,1.83,8.64,4.59,11.38,8.28,2.74,3.69,4.11,8.04,4.11,13.04,0,7.7-2.54,13.64-7.62,17.81-5.08,4.17-12.35,6.25-21.8,6.25h-27.63ZM76.63,238.95h14.29c5,0,8.87-1.21,11.61-3.63,2.74-2.42,4.11-5.82,4.11-10.18,0-9.13-5.44-13.7-16.32-13.7h-13.7v27.52ZM76.63,276.95h18.22c5.88,0,10.22-1.11,13.04-3.34,2.82-2.22,4.23-5.76,4.23-10.6s-1.47-8.24-4.41-10.66c-2.94-2.42-7.15-3.63-12.63-3.63h-18.46v28.23Z"/>
        <path class="cls-1" d="M137.5,287.19c-.56-1.35-.83-3.04-.83-5.06s.28-3.67.83-4.94h15.96v-65.99h-15.96c-.56-1.35-.83-3.04-.83-5.06s.28-3.67.83-4.94h42.88c.55,1.27.83,2.92.83,4.94s-.28,3.71-.83,5.06h-15.84v65.99h15.84c.55,1.27.83,2.92.83,4.94s-.28,3.71-.83,5.06h-42.88Z"/>
        <path class="cls-1" d="M206.35,288.02c-1.99,0-3.81-.28-5.48-.83v-86c1.67-.55,3.53-.83,5.6-.83.71,0,1.45.04,2.2.12.75.08,1.53.24,2.32.48l46.45,65.63v-65.39c1.67-.55,3.53-.83,5.6-.83,1.75,0,3.57.28,5.48.83v86c-1.35.55-2.86.83-4.53.83-1.83,0-3.53-.28-5.12-.83l-46.93-66.35v66.35c-1.91.55-3.77.83-5.6.83Z"/>
        <path class="cls-1" d="M326.41,288.86c-7.94,0-14.87-1.85-20.79-5.54-5.92-3.69-10.5-8.87-13.76-15.54-3.26-6.67-4.88-14.53-4.88-23.58s1.65-17.03,4.94-23.7c3.29-6.67,7.98-11.83,14.06-15.48,6.07-3.65,13.24-5.48,21.5-5.48,5.64,0,10.9.85,15.78,2.56,4.88,1.71,8.87,4.15,11.97,7.33-.71,3.18-2.7,6.04-5.96,8.58-6.27-5.24-13.5-7.86-21.68-7.86-9.29,0-16.5,2.96-21.62,8.87-5.12,5.92-7.68,14.19-7.68,24.84,0,6.99,1.13,13.06,3.39,18.22,2.26,5.16,5.48,9.15,9.65,11.97,4.17,2.82,9.11,4.23,14.83,4.23,4.92,0,9.23-1.03,12.92-3.1,3.69-2.06,6.57-4.96,8.64-8.7,2.06-3.73,3.1-8.1,3.1-13.1,0-1.03-.04-1.94-.12-2.74h-27.75c-.4-.71-.68-1.73-.83-3.04-.16-1.31-.16-2.64,0-3.99.16-1.35.44-2.42.83-3.22h37.64c.32.64.6,2.2.83,4.71.24,2.5.36,4.9.36,7.21,0,7.38-1.47,13.82-4.41,19.3-2.94,5.48-7.05,9.73-12.33,12.75-5.28,3.02-11.49,4.53-18.64,4.53Z"/>
        <path class="cls-1" d="M414.08,288.86c-7.62,0-14.33-1.89-20.13-5.66-5.8-3.77-10.32-9.01-13.58-15.72-3.26-6.71-4.88-14.47-4.88-23.29s1.63-16.58,4.88-23.29c3.25-6.71,7.78-11.95,13.58-15.72,5.8-3.77,12.51-5.66,20.13-5.66s14.31,1.89,20.07,5.66c5.76,3.77,10.24,8.99,13.46,15.66,3.22,6.67,4.82,14.45,4.82,23.35s-1.61,16.58-4.82,23.29c-3.22,6.71-7.7,11.95-13.46,15.72-5.76,3.77-12.45,5.66-20.07,5.66ZM413.96,278.14c5.48,0,10.24-1.41,14.29-4.23,4.05-2.82,7.19-6.79,9.41-11.91,2.22-5.12,3.34-11.06,3.34-17.81s-1.11-12.78-3.34-17.87c-2.22-5.08-5.36-9.03-9.41-11.85-4.05-2.82-8.78-4.23-14.17-4.23s-10.15,1.41-14.23,4.23c-4.09,2.82-7.27,6.77-9.53,11.85-2.26,5.08-3.39,11.04-3.39,17.87s1.11,12.69,3.33,17.81c2.22,5.12,5.38,9.09,9.47,11.91,4.09,2.82,8.83,4.23,14.23,4.23Z"/>
        <path class="cls-1" d="M540.58,288.86c-8.1,0-15.07-1.79-20.91-5.36-5.84-3.57-10.3-8.58-13.4-15.01-3.1-6.43-4.64-13.98-4.64-22.63,0-9.21,1.69-17.29,5.06-24.24,3.38-6.95,8.08-12.37,14.12-16.26,6.03-3.89,12.94-5.84,20.73-5.84,6.19,0,11.85,1.25,16.97,3.75s9.27,5.98,12.45,10.42c-.4,1.43-1.41,2.9-3.04,4.41-1.63,1.51-3.24,2.5-4.82,2.98-2.86-3.73-6.12-6.47-9.77-8.22-3.65-1.75-7.58-2.62-11.79-2.62-5.64,0-10.6,1.47-14.89,4.41-4.29,2.94-7.62,7.03-10.01,12.27-2.38,5.24-3.57,11.36-3.57,18.34,0,6.59,1.09,12.35,3.28,17.27,2.18,4.92,5.4,8.75,9.65,11.49,4.25,2.74,9.43,4.11,15.54,4.11,5.32,0,9.92-1.07,13.82-3.22,3.89-2.14,7.42-5.16,10.6-9.05,1.51.48,3.06,1.35,4.65,2.62,1.59,1.27,2.7,2.54,3.33,3.81-3.65,5.4-8.36,9.51-14.12,12.33-5.76,2.82-12.17,4.23-19.24,4.23Z"/>
        <path class="cls-1" d="M591.56,288.86c-1.75-.24-3.5-.68-5.24-1.31-1.75-.63-3.22-1.55-4.41-2.74l33.35-83.62c1.27-.55,2.78-.83,4.53-.83,1.98,0,3.53.28,4.65.83l33.59,83.5c-1.03,1.11-2.42,2.01-4.17,2.68-1.75.67-3.69,1.17-5.84,1.49l-9.41-23.7h-37.76l-9.29,23.7ZM604.9,254.91h29.66l-14.89-37.52-14.77,37.52Z"/>
        <path class="cls-1" d="M680.18,288.02c-1.99,0-3.81-.28-5.48-.83v-86h28.47c5.32,0,10.26.81,14.83,2.44,4.57,1.63,8.26,4.27,11.08,7.92,2.82,3.65,4.23,8.46,4.23,14.41,0,4.61-.91,8.56-2.74,11.85-1.83,3.3-4.17,6-7.03,8.1-2.86,2.1-5.92,3.75-9.17,4.94l21.32,29.9c-.64,1.67-1.77,3.18-3.4,4.53-1.63,1.35-3.39,2.22-5.3,2.62l-24.54-34.42c-.88.08-1.71.12-2.5.12h-14.17v33.59c-1.91.55-3.77.83-5.6.83ZM704.12,211.43h-18.34v31.92h14.17c2.46,0,4.98-.26,7.56-.77,2.58-.52,4.94-1.39,7.09-2.62,2.14-1.23,3.89-2.96,5.24-5.18,1.35-2.22,2.03-5.04,2.03-8.46,0-4.84-1.67-8.54-5-11.08-3.33-2.54-7.58-3.81-12.75-3.81Z"/>
        <path class="cls-1" d="M754.51,287.19l.12-.48v-85.52h20.73c9.61,0,17.85,1.67,24.72,5,6.87,3.34,12.15,8.16,15.84,14.47,3.69,6.31,5.54,14,5.54,23.05,0,13.82-4.11,24.52-12.33,32.1-8.22,7.58-19.75,11.38-34.6,11.38h-20.01ZM765.7,276.95h10.48c10.88,0,19.24-2.86,25.07-8.58,5.84-5.72,8.75-13.94,8.75-24.66s-2.96-18.68-8.87-24.12c-5.92-5.44-14.55-8.16-25.91-8.16h-9.53v65.51Z"/>
      </g>
      <g>
        <path class="cls-2" d="M70.1,1224.22c-1.96,0-3.91-.31-5.85-.92-1.94-.61-3.51-1.41-4.7-2.39l1.99-4.2c.7.52,1.52.99,2.47,1.39.94.4,1.94.72,2.99.94,1.05.23,2.08.34,3.09.34,1.92,0,3.53-.31,4.83-.94,1.29-.63,2.27-1.56,2.94-2.78.66-1.22,1-2.75,1-4.56v-5.3l.58.37c-.17,1.08-.74,2.12-1.7,3.12-.96,1-2.16,1.81-3.59,2.44-1.43.63-2.9.94-4.41.94-2.62,0-4.96-.62-7-1.86-2.05-1.24-3.66-2.94-4.85-5.09-1.19-2.15-1.78-4.61-1.78-7.37s.58-5.22,1.76-7.37c1.17-2.15,2.78-3.85,4.83-5.09,2.05-1.24,4.34-1.86,6.9-1.86,1.05,0,2.06.13,3.04.39.98.26,1.89.63,2.73,1.1.84.47,1.59.99,2.25,1.55s1.21,1.15,1.63,1.78c.42.63.68,1.22.79,1.78l-1.15.42v-6.45h5.4v25.86c0,2.2-.32,4.15-.97,5.85-.65,1.7-1.58,3.13-2.81,4.3-1.22,1.17-2.71,2.06-4.46,2.68-1.75.61-3.72.92-5.93.92ZM70.31,1207.69c1.71,0,3.23-.4,4.56-1.21s2.36-1.91,3.09-3.3,1.1-3.01,1.1-4.83-.38-3.44-1.13-4.85-1.78-2.53-3.09-3.33c-1.31-.8-2.82-1.21-4.54-1.21s-3.17.41-4.49,1.23c-1.31.82-2.34,1.94-3.09,3.36-.75,1.42-1.13,3.02-1.13,4.8s.38,3.38,1.13,4.8c.75,1.42,1.78,2.53,3.09,3.33s2.81,1.21,4.49,1.21Z"/>
        <path class="cls-2" d="M104.67,1212.68c-2.83,0-5.34-.6-7.53-1.81-2.19-1.21-3.9-2.86-5.14-4.96-1.24-2.1-1.86-4.51-1.86-7.24,0-2.17.35-4.14,1.05-5.93.7-1.78,1.67-3.33,2.91-4.64s2.73-2.33,4.46-3.04,3.61-1.08,5.64-1.08c1.78,0,3.44.34,4.98,1.02,1.54.68,2.88,1.62,4.01,2.81,1.14,1.19,2.01,2.6,2.62,4.22.61,1.63.9,3.4.87,5.32l-.05,2.31h-22.5l-1.21-4.3h19.04l-.79.89v-1.26c-.11-1.15-.49-2.19-1.15-3.09-.67-.91-1.5-1.63-2.52-2.15-1.01-.52-2.12-.79-3.3-.79-1.89,0-3.48.36-4.77,1.08s-2.27,1.77-2.94,3.15-1,3.09-1,5.11c0,1.92.4,3.59,1.21,5.01.8,1.42,1.94,2.51,3.41,3.28,1.47.77,3.16,1.15,5.09,1.15,1.36,0,2.63-.23,3.8-.68,1.17-.45,2.44-1.28,3.8-2.47l2.73,3.83c-.84.84-1.86,1.57-3.07,2.2-1.21.63-2.48,1.13-3.83,1.5-1.35.37-2.67.55-3.96.55Z"/>
        <path class="cls-2" d="M122.56,1212.15v-27.54h5.4v5.67l-.94.63c.35-1.22,1.03-2.35,2.05-3.38,1.01-1.03,2.22-1.87,3.62-2.52,1.4-.65,2.83-.97,4.3-.97,2.1,0,3.85.41,5.25,1.23,1.4.82,2.45,2.07,3.15,3.75.7,1.68,1.05,3.79,1.05,6.35v16.79h-5.4v-16.42c0-1.57-.21-2.88-.63-3.91-.42-1.03-1.07-1.78-1.94-2.26-.88-.47-1.96-.67-3.25-.6-1.05,0-2.01.17-2.88.5-.88.33-1.64.8-2.28,1.39-.65.6-1.15,1.29-1.52,2.07s-.55,1.63-.55,2.54v16.68h-5.4Z"/>
        <path class="cls-2" d="M165.26,1212.68c-2.52,0-4.76-.62-6.74-1.86-1.98-1.24-3.54-2.94-4.7-5.09-1.15-2.15-1.73-4.61-1.73-7.37s.57-5.22,1.7-7.37c1.14-2.15,2.68-3.85,4.64-5.09,1.96-1.24,4.18-1.86,6.66-1.86,1.36,0,2.68.22,3.96.66,1.28.44,2.42,1.03,3.44,1.78s1.81,1.57,2.39,2.47c.58.89.87,1.79.87,2.7l-1.57.1v-18.41h5.4v38.82h-5.4v-6.56h1.05c0,.84-.28,1.67-.84,2.49-.56.82-1.3,1.58-2.23,2.28s-1.99,1.26-3.2,1.68c-1.21.42-2.44.63-3.7.63ZM165.99,1208.01c1.64,0,3.1-.42,4.35-1.26,1.26-.84,2.25-1.98,2.96-3.44.72-1.45,1.08-3.1,1.08-4.96s-.36-3.51-1.08-4.96c-.72-1.45-1.71-2.6-2.96-3.44s-2.71-1.26-4.35-1.26-3.09.42-4.35,1.26-2.25,1.99-2.96,3.44c-.72,1.45-1.08,3.1-1.08,4.96s.36,3.51,1.08,4.96,1.71,2.6,2.96,3.44c1.26.84,2.71,1.26,4.35,1.26Z"/>
        <path class="cls-2" d="M199.88,1212.68c-2.83,0-5.34-.6-7.53-1.81-2.19-1.21-3.9-2.86-5.14-4.96-1.24-2.1-1.86-4.51-1.86-7.24,0-2.17.35-4.14,1.05-5.93.7-1.78,1.67-3.33,2.91-4.64s2.73-2.33,4.46-3.04,3.61-1.08,5.64-1.08c1.78,0,3.44.34,4.98,1.02,1.54.68,2.88,1.62,4.01,2.81,1.14,1.19,2.01,2.6,2.62,4.22.61,1.63.9,3.4.87,5.32l-.05,2.31h-22.5l-1.21-4.3h19.04l-.79.89v-1.26c-.11-1.15-.49-2.19-1.15-3.09-.67-.91-1.5-1.63-2.52-2.15-1.01-.52-2.12-.79-3.3-.79-1.89,0-3.48.36-4.77,1.08s-2.27,1.77-2.94,3.15-1,3.09-1,5.11c0,1.92.4,3.59,1.21,5.01.8,1.42,1.94,2.51,3.41,3.28,1.47.77,3.16,1.15,5.09,1.15,1.36,0,2.63-.23,3.8-.68,1.17-.45,2.44-1.28,3.8-2.47l2.73,3.83c-.84.84-1.86,1.57-3.07,2.2-1.21.63-2.48,1.13-3.83,1.5-1.35.37-2.67.55-3.96.55Z"/>
        <path class="cls-2" d="M217.77,1212.15v-27.54h5.46v8.66l-.52-2.1c.38-1.33,1.04-2.54,1.97-3.62.93-1.08,1.99-1.94,3.2-2.57,1.21-.63,2.46-.94,3.75-.94.59,0,1.16.05,1.7.16.54.11.97.23,1.29.37l-1.42,5.88c-.42-.17-.88-.32-1.39-.45-.51-.12-1.01-.18-1.5-.18-.94,0-1.85.18-2.7.55-.86.37-1.61.87-2.25,1.52-.65.65-1.16,1.4-1.55,2.25-.39.86-.58,1.79-.58,2.81v15.21h-5.46Z"/>
        <path class="cls-2" d="M238.91,1212.15v-27.54h5.46v8.66l-.52-2.1c.38-1.33,1.04-2.54,1.97-3.62.93-1.08,1.99-1.94,3.2-2.57,1.21-.63,2.46-.94,3.75-.94.59,0,1.16.05,1.7.16.54.11.97.23,1.29.37l-1.42,5.88c-.42-.17-.88-.32-1.39-.45-.51-.12-1.01-.18-1.5-.18-.94,0-1.85.18-2.7.55-.86.37-1.61.87-2.25,1.52-.65.65-1.16,1.4-1.55,2.25-.39.86-.58,1.79-.58,2.81v15.21h-5.46Z"/>
        <path class="cls-2" d="M271.75,1212.68c-2.83,0-5.34-.6-7.53-1.81-2.19-1.21-3.9-2.86-5.14-4.96-1.24-2.1-1.86-4.51-1.86-7.24,0-2.17.35-4.14,1.05-5.93.7-1.78,1.67-3.33,2.91-4.64s2.73-2.33,4.46-3.04,3.61-1.08,5.64-1.08c1.78,0,3.44.34,4.98,1.02,1.54.68,2.88,1.62,4.01,2.81,1.14,1.19,2.01,2.6,2.62,4.22.61,1.63.9,3.4.87,5.32l-.05,2.31h-22.5l-1.21-4.3h19.04l-.79.89v-1.26c-.11-1.15-.49-2.19-1.15-3.09-.67-.91-1.5-1.63-2.52-2.15-1.01-.52-2.12-.79-3.3-.79-1.89,0-3.48.36-4.77,1.08s-2.27,1.77-2.94,3.15-1,3.09-1,5.11c0,1.92.4,3.59,1.21,5.01.8,1.42,1.94,2.51,3.41,3.28,1.47.77,3.16,1.15,5.09,1.15,1.36,0,2.63-.23,3.8-.68,1.17-.45,2.44-1.28,3.8-2.47l2.73,3.83c-.84.84-1.86,1.57-3.07,2.2-1.21.63-2.48,1.13-3.83,1.5-1.35.37-2.67.55-3.96.55Z"/>
        <path class="cls-2" d="M298.13,1212.15l-11.65-27.54h5.82l8.39,20.62-1,.47,8.97-21.09h5.56l-12.22,27.54h-3.88Z"/>
        <path class="cls-2" d="M331.23,1212.68c-2.83,0-5.34-.6-7.53-1.81-2.19-1.21-3.9-2.86-5.14-4.96-1.24-2.1-1.86-4.51-1.86-7.24,0-2.17.35-4.14,1.05-5.93.7-1.78,1.67-3.33,2.91-4.64s2.73-2.33,4.46-3.04,3.61-1.08,5.64-1.08c1.78,0,3.44.34,4.98,1.02,1.54.68,2.88,1.62,4.01,2.81,1.14,1.19,2.01,2.6,2.62,4.22.61,1.63.9,3.4.87,5.32l-.05,2.31h-22.5l-1.21-4.3h19.04l-.79.89v-1.26c-.11-1.15-.49-2.19-1.15-3.09-.67-.91-1.5-1.63-2.52-2.15-1.01-.52-2.12-.79-3.3-.79-1.89,0-3.48.36-4.77,1.08s-2.27,1.77-2.94,3.15-1,3.09-1,5.11c0,1.92.4,3.59,1.21,5.01.8,1.42,1.94,2.51,3.41,3.28,1.47.77,3.16,1.15,5.09,1.15,1.36,0,2.63-.23,3.8-.68,1.17-.45,2.44-1.28,3.8-2.47l2.73,3.83c-.84.84-1.86,1.57-3.07,2.2-1.21.63-2.48,1.13-3.83,1.5-1.35.37-2.67.55-3.96.55Z"/>
        <path class="cls-2" d="M359.72,1212.68c-2.27,0-4.35-.63-6.22-1.89-1.87-1.26-3.37-2.97-4.49-5.14-1.12-2.17-1.68-4.62-1.68-7.34s.57-5.22,1.71-7.37c1.14-2.15,2.68-3.84,4.62-5.06,1.94-1.22,4.12-1.84,6.53-1.84,1.43,0,2.75.21,3.93.63,1.19.42,2.23,1.01,3.12,1.76.89.75,1.63,1.62,2.2,2.6.58.98.93,2.03,1.08,3.15l-1.21-.42v-7.13h5.46v27.54h-5.46v-6.56l1.26-.37c-.21.94-.64,1.86-1.29,2.75-.65.89-1.47,1.69-2.46,2.39-1,.7-2.1,1.26-3.3,1.68-1.21.42-2.47.63-3.8.63ZM361.14,1207.69c1.64,0,3.09-.4,4.35-1.21s2.25-1.92,2.96-3.33c.72-1.42,1.08-3.03,1.08-4.85s-.36-3.38-1.08-4.77-1.71-2.5-2.96-3.3-2.71-1.21-4.35-1.21-3.04.4-4.28,1.21c-1.24.8-2.22,1.91-2.94,3.3-.72,1.4-1.08,2.99-1.08,4.77s.36,3.44,1.08,4.85c.72,1.42,1.7,2.53,2.94,3.33,1.24.8,2.67,1.21,4.28,1.21Z"/>
        <path class="cls-2" d="M382.43,1212.15v-38.82h5.4v38.82h-5.4Z"/>
        <path class="cls-2" d="M409.97,1212.68c-1.19,0-2.37-.19-3.54-.58-1.17-.38-2.24-.9-3.2-1.55-.96-.65-1.77-1.36-2.41-2.15-.65-.79-1.08-1.58-1.29-2.39l1.36-.73v6.71h-5.4v-38.66h5.4v17.57l-.84-.47c.17-.8.56-1.58,1.15-2.33.59-.75,1.35-1.43,2.28-2.05.93-.61,1.93-1.1,3.02-1.47s2.19-.55,3.3-.55c2.48,0,4.69.61,6.61,1.84,1.92,1.22,3.44,2.91,4.56,5.06,1.12,2.15,1.68,4.61,1.68,7.37s-.55,5.23-1.65,7.4c-1.1,2.17-2.62,3.87-4.54,5.11-1.92,1.24-4.09,1.86-6.5,1.86ZM409.08,1207.75c1.61,0,3.04-.41,4.3-1.23s2.26-1.94,2.99-3.36c.73-1.42,1.1-3.03,1.1-4.85s-.36-3.38-1.08-4.8-1.7-2.53-2.96-3.33c-1.26-.8-2.71-1.21-4.35-1.21s-3.09.4-4.35,1.21c-1.26.8-2.26,1.92-2.99,3.33s-1.1,3.02-1.1,4.8.37,3.44,1.1,4.85c.73,1.42,1.73,2.54,2.99,3.36,1.26.82,2.71,1.23,4.35,1.23Z"/>
        <path class="cls-2" d="M432.06,1178.53c-1.15,0-2.05-.3-2.68-.89s-.94-1.43-.94-2.52c0-1.01.32-1.84.97-2.46.65-.63,1.53-.94,2.65-.94s2.04.3,2.67.89.94,1.43.94,2.52c0,1.01-.32,1.84-.97,2.47-.65.63-1.53.94-2.65.94ZM429.43,1212.15v-27.54h5.4v27.54h-5.4Z"/>
        <path class="cls-2" d="M443.13,1212.15v-27.54h5.4v5.67l-.94.63c.35-1.22,1.03-2.35,2.05-3.38,1.01-1.03,2.22-1.87,3.62-2.52,1.4-.65,2.83-.97,4.3-.97,2.1,0,3.85.41,5.25,1.23,1.4.82,2.45,2.07,3.15,3.75.7,1.68,1.05,3.79,1.05,6.35v16.79h-5.4v-16.42c0-1.57-.21-2.88-.63-3.91-.42-1.03-1.07-1.78-1.94-2.26-.88-.47-1.96-.67-3.25-.6-1.05,0-2.01.17-2.88.5-.88.33-1.64.8-2.28,1.39-.65.6-1.15,1.29-1.52,2.07s-.55,1.63-.55,2.54v16.68h-5.4Z"/>
        <path class="cls-2" d="M486.66,1224.22c-1.96,0-3.91-.31-5.85-.92-1.94-.61-3.51-1.41-4.7-2.39l1.99-4.2c.7.52,1.52.99,2.47,1.39.94.4,1.94.72,2.99.94,1.05.23,2.08.34,3.09.34,1.92,0,3.53-.31,4.83-.94,1.29-.63,2.27-1.56,2.94-2.78.66-1.22,1-2.75,1-4.56v-5.3l.58.37c-.17,1.08-.74,2.12-1.7,3.12-.96,1-2.16,1.81-3.59,2.44-1.43.63-2.9.94-4.41.94-2.62,0-4.96-.62-7-1.86-2.05-1.24-3.66-2.94-4.85-5.09-1.19-2.15-1.78-4.61-1.78-7.37s.58-5.22,1.76-7.37c1.17-2.15,2.78-3.85,4.83-5.09,2.05-1.24,4.34-1.86,6.9-1.86,1.05,0,2.06.13,3.04.39.98.26,1.89.63,2.73,1.1.84.47,1.59.99,2.25,1.55s1.21,1.15,1.63,1.78c.42.63.68,1.22.79,1.78l-1.15.42v-6.45h5.4v25.86c0,2.2-.32,4.15-.97,5.85-.65,1.7-1.58,3.13-2.81,4.3-1.22,1.17-2.71,2.06-4.46,2.68-1.75.61-3.72.92-5.93.92ZM486.87,1207.69c1.71,0,3.23-.4,4.56-1.21s2.36-1.91,3.09-3.3,1.1-3.01,1.1-4.83-.38-3.44-1.13-4.85-1.78-2.53-3.09-3.33c-1.31-.8-2.82-1.21-4.54-1.21s-3.17.41-4.49,1.23c-1.31.82-2.34,1.94-3.09,3.36-.75,1.42-1.13,3.02-1.13,4.8s.38,3.38,1.13,4.8c.75,1.42,1.78,2.53,3.09,3.33s2.81,1.21,4.49,1.21Z"/>
        <path class="cls-2" d="M520.76,1212.68c-2.69,0-5.1-.62-7.21-1.86-2.12-1.24-3.79-2.94-5.01-5.09-1.22-2.15-1.84-4.61-1.84-7.37s.61-5.22,1.84-7.37c1.22-2.15,2.89-3.85,5.01-5.09,2.12-1.24,4.52-1.86,7.21-1.86s5.04.62,7.16,1.86c2.12,1.24,3.79,2.94,5.01,5.09,1.22,2.15,1.84,4.61,1.84,7.37s-.61,5.22-1.84,7.37c-1.22,2.15-2.89,3.85-5.01,5.09-2.12,1.24-4.5,1.86-7.16,1.86ZM520.76,1207.75c1.64,0,3.11-.41,4.41-1.23,1.29-.82,2.31-1.94,3.04-3.36.73-1.42,1.08-3.02,1.05-4.8.03-1.82-.32-3.44-1.05-4.85s-1.75-2.53-3.04-3.33c-1.29-.8-2.76-1.21-4.41-1.21s-3.12.41-4.43,1.23c-1.31.82-2.33,1.94-3.07,3.36-.73,1.42-1.08,3.02-1.05,4.8-.04,1.78.31,3.38,1.05,4.8.73,1.42,1.76,2.54,3.07,3.36,1.31.82,2.79,1.23,4.43,1.23Z"/>
        <path class="cls-2" d="M542.84,1212.73c-1.15,0-2.05-.34-2.68-1.02-.63-.68-.94-1.65-.94-2.91,0-1.15.33-2.1,1-2.83.66-.73,1.54-1.1,2.62-1.1,1.15,0,2.05.34,2.67,1.02.63.68.94,1.65.94,2.91,0,1.15-.33,2.1-1,2.83s-1.54,1.1-2.62,1.1Z"/>
        <path class="cls-2" d="M552.6,1223.69v-39.08h5.46v6.29l-.84-.47c.21-1.05.8-2.05,1.78-3.02.98-.96,2.18-1.75,3.59-2.36,1.42-.61,2.88-.92,4.38-.92,2.48,0,4.69.61,6.61,1.84,1.92,1.22,3.44,2.9,4.56,5.04,1.12,2.13,1.68,4.58,1.68,7.34s-.55,5.17-1.65,7.32-2.61,3.85-4.54,5.09c-1.92,1.24-4.09,1.86-6.5,1.86-1.61,0-3.17-.32-4.67-.97-1.5-.65-2.78-1.48-3.83-2.49-1.05-1.01-1.7-2.06-1.94-3.15l1.36-.73v18.41h-5.46ZM566.24,1207.64c1.61,0,3.04-.4,4.3-1.21,1.26-.8,2.25-1.91,2.99-3.3.73-1.4,1.1-2.99,1.1-4.77s-.36-3.37-1.08-4.75c-.72-1.38-1.71-2.47-2.96-3.28-1.26-.8-2.71-1.21-4.35-1.21s-3.09.39-4.35,1.18c-1.26.79-2.25,1.88-2.99,3.28-.74,1.4-1.1,2.99-1.1,4.77s.37,3.38,1.1,4.77c.73,1.4,1.73,2.5,2.99,3.3,1.26.8,2.71,1.21,4.35,1.21Z"/>
        <path class="cls-2" d="M596.3,1212.68c-2.27,0-4.35-.63-6.22-1.89-1.87-1.26-3.37-2.97-4.49-5.14-1.12-2.17-1.68-4.62-1.68-7.34s.57-5.22,1.71-7.37c1.14-2.15,2.68-3.84,4.62-5.06,1.94-1.22,4.12-1.84,6.53-1.84,1.43,0,2.75.21,3.93.63,1.19.42,2.23,1.01,3.12,1.76.89.75,1.63,1.62,2.2,2.6.58.98.93,2.03,1.08,3.15l-1.21-.42v-7.13h5.46v27.54h-5.46v-6.56l1.26-.37c-.21.94-.64,1.86-1.29,2.75-.65.89-1.47,1.69-2.46,2.39-1,.7-2.1,1.26-3.3,1.68-1.21.42-2.47.63-3.8.63ZM597.71,1207.69c1.64,0,3.09-.4,4.35-1.21s2.25-1.92,2.96-3.33c.72-1.42,1.08-3.03,1.08-4.85s-.36-3.38-1.08-4.77-1.71-2.5-2.96-3.3-2.71-1.21-4.35-1.21-3.04.4-4.28,1.21c-1.24.8-2.22,1.91-2.94,3.3-.72,1.4-1.08,2.99-1.08,4.77s.36,3.44,1.08,4.85c.72,1.42,1.7,2.53,2.94,3.33,1.24.8,2.67,1.21,4.28,1.21Z"/>
        <path class="cls-2" d="M618.91,1212.15v-27.54h5.46v8.66l-.52-2.1c.38-1.33,1.04-2.54,1.97-3.62.93-1.08,1.99-1.94,3.2-2.57,1.21-.63,2.46-.94,3.75-.94.59,0,1.16.05,1.7.16.54.11.97.23,1.29.37l-1.42,5.88c-.42-.17-.88-.32-1.39-.45-.51-.12-1.01-.18-1.5-.18-.94,0-1.85.18-2.7.55-.86.37-1.61.87-2.25,1.52-.65.65-1.16,1.4-1.55,2.25-.39.86-.58,1.79-.58,2.81v15.21h-5.46Z"/>
        <path class="cls-2" d="M638.79,1189.86v-5.25h17.52v5.25h-17.52ZM644.5,1212.15v-34.57h5.4v34.57h-5.4Z"/>
        <path class="cls-2" d="M665.86,1224.22l5.56-12.85.05,4.3-13.74-31.05h6.29l8.6,20.25c.17.35.38.88.63,1.6.24.72.45,1.42.63,2.12l-1.36.32c.28-.73.55-1.47.81-2.2.26-.74.52-1.47.76-2.2l7.19-19.88h6.4l-11.33,27.54-4.67,12.07h-5.82Z"/>
        <path class="cls-2" d="M687.83,1219.08l21.61-43.64h5.19l-21.56,43.64h-5.25Z"/>
        <path class="cls-2" d="M728.96,1212.68c-2.55,0-4.83-.63-6.85-1.89-2.01-1.26-3.6-2.97-4.77-5.14-1.17-2.17-1.76-4.6-1.76-7.29s.58-5.12,1.76-7.29c1.17-2.17,2.76-3.88,4.77-5.14s4.29-1.89,6.85-1.89,4.68.5,6.69,1.5c2.01,1,3.54,2.35,4.59,4.07l-2.99,3.67c-.56-.8-1.28-1.54-2.15-2.2-.87-.66-1.8-1.19-2.78-1.57-.98-.38-1.92-.58-2.83-.58-1.68,0-3.17.41-4.48,1.23-1.31.82-2.35,1.95-3.12,3.38-.77,1.43-1.15,3.04-1.15,4.83s.4,3.38,1.21,4.8c.8,1.42,1.87,2.54,3.2,3.38,1.33.84,2.8,1.26,4.41,1.26.94,0,1.86-.16,2.75-.47s1.76-.79,2.6-1.42c.84-.63,1.63-1.4,2.36-2.31l2.99,3.67c-1.12,1.57-2.72,2.87-4.8,3.88-2.08,1.01-4.24,1.52-6.48,1.52Z"/>
        <path class="cls-2" d="M755.92,1212.68c-2.27,0-4.35-.63-6.22-1.89-1.87-1.26-3.37-2.97-4.49-5.14-1.12-2.17-1.68-4.62-1.68-7.34s.57-5.22,1.71-7.37c1.14-2.15,2.68-3.84,4.62-5.06,1.94-1.22,4.12-1.84,6.53-1.84,1.43,0,2.75.21,3.93.63,1.19.42,2.23,1.01,3.12,1.76.89.75,1.63,1.62,2.2,2.6.58.98.93,2.03,1.08,3.15l-1.21-.42v-7.13h5.46v27.54h-5.46v-6.56l1.26-.37c-.21.94-.64,1.86-1.29,2.75-.65.89-1.47,1.69-2.46,2.39-1,.7-2.1,1.26-3.3,1.68-1.21.42-2.47.63-3.8.63ZM757.34,1207.69c1.64,0,3.09-.4,4.35-1.21s2.25-1.92,2.96-3.33c.72-1.42,1.08-3.03,1.08-4.85s-.36-3.38-1.08-4.77-1.71-2.5-2.96-3.3-2.71-1.21-4.35-1.21-3.04.4-4.28,1.21c-1.24.8-2.22,1.91-2.94,3.3-.72,1.4-1.08,2.99-1.08,4.77s.36,3.44,1.08,4.85c.72,1.42,1.7,2.53,2.94,3.33,1.24.8,2.67,1.21,4.28,1.21Z"/>
        <path class="cls-2" d="M778.53,1212.15v-27.54h5.46v8.66l-.52-2.1c.38-1.33,1.04-2.54,1.97-3.62.93-1.08,1.99-1.94,3.2-2.57,1.21-.63,2.46-.94,3.75-.94.59,0,1.16.05,1.7.16.54.11.97.23,1.29.37l-1.42,5.88c-.42-.17-.88-.32-1.39-.45-.51-.12-1.01-.18-1.5-.18-.94,0-1.85.18-2.7.55-.86.37-1.61.87-2.25,1.52-.65.65-1.16,1.4-1.55,2.25-.39.86-.58,1.79-.58,2.81v15.21h-5.46Z"/>
        <path class="cls-2" d="M810.01,1212.68c-2.52,0-4.76-.62-6.74-1.86-1.98-1.24-3.54-2.94-4.7-5.09-1.15-2.15-1.73-4.61-1.73-7.37s.57-5.22,1.7-7.37c1.14-2.15,2.68-3.85,4.64-5.09,1.96-1.24,4.18-1.86,6.66-1.86,1.36,0,2.68.22,3.96.66,1.28.44,2.42,1.03,3.44,1.78s1.81,1.57,2.39,2.47c.58.89.87,1.79.87,2.7l-1.57.1v-18.41h5.4v38.82h-5.4v-6.56h1.05c0,.84-.28,1.67-.84,2.49-.56.82-1.3,1.58-2.23,2.28s-1.99,1.26-3.2,1.68c-1.21.42-2.44.63-3.7.63ZM810.74,1208.01c1.64,0,3.1-.42,4.35-1.26,1.26-.84,2.25-1.98,2.96-3.44.72-1.45,1.08-3.1,1.08-4.96s-.36-3.51-1.08-4.96c-.72-1.45-1.71-2.6-2.96-3.44s-2.71-1.26-4.35-1.26-3.09.42-4.35,1.26-2.25,1.99-2.96,3.44c-.72,1.45-1.08,3.1-1.08,4.96s.36,3.51,1.08,4.96,1.71,2.6,2.96,3.44c1.26.84,2.71,1.26,4.35,1.26Z"/>
      </g>
      <g>
        <path class="cls-1" d="M828,366.53v738c0,4.97-2.01,9.47-5.27,12.73s-7.76,5.27-12.73,5.27H72c-4.97,0-9.47-2.01-12.73-5.27-3.26-3.26-5.27-7.76-5.27-12.73V366.53c0-4.97,2.01-9.47,5.27-12.73,3.26-3.26,7.76-5.27,12.73-5.27h738c4.97,0,9.47,2.01,12.73,5.27,3.26,3.26,5.27,7.76,5.27,12.73Z"/>
        <g>
          <polygon class="cls-3" points="468 1014.53 468 1050.53 432 1050.53 432 1032.53 396 1032.53 396 1068.53 378 1068.53 378 1014.53 468 1014.53"/>
          <rect class="cls-3" x="270" y="1050.53" width="18" height="18"/>
          <path class="cls-3" d="M108,942.53v126h126v-126h-126ZM216,1050.53h-90v-90h90v90Z"/>
          <rect class="cls-3" x="720" y="1014.53" width="18" height="18"/>
          <rect class="cls-3" x="666" y="1014.53" width="18" height="18"/>
          <path class="cls-3" d="M774,924.53v-18h-54v-18h-18v-18h-18v-18h-18v18h-18v18h18v18h-18v-18h-18v18h-36v-18h18v-18h-18v-18h-18v18h-18v18h18v18h-18v18h18v54h-18v-18h-18v36h36v18h36v18h-18v18h54v18h126v-54h-18v36h-90v-18h-18v-18h-18v-18h18v18h18v-18h18v18h18v-54h18v-18h-18v-18h36v54h-18v18h54v-18h-18v-18h18v-18h-18v-18h18ZM612,978.53h-18v-36h18v36ZM684,978.53h-54v-54h54v54Z"/>
          <polygon class="cls-3" points="594 1050.53 594 1068.53 522 1068.53 522 1050.53 486 1050.53 486 1014.53 504 1014.53 504 978.53 522 978.53 522 1014.53 558 1014.53 558 1032.53 540 1032.53 540 1050.53 594 1050.53"/>
          <polygon class="cls-3" points="288 996.53 288 1014.53 270 1014.53 270 1032.53 252 1032.53 252 978.53 270 978.53 270 996.53 288 996.53"/>
          <rect class="cls-3" x="144" y="978.53" width="54" height="54"/>
          <polygon class="cls-3" points="486 978.53 486 1014.53 468 1014.53 468 996.53 396 996.53 396 960.53 414 960.53 414 978.53 432 978.53 432 960.53 414 960.53 414 924.53 432 924.53 432 942.53 450 942.53 450 960.53 468 960.53 468 978.53 486 978.53"/>
          <rect class="cls-3" x="486" y="960.53" width="18" height="18"/>
          <rect class="cls-3" x="648" y="942.53" width="18" height="18"/>
          <rect class="cls-3" x="486" y="924.53" width="54" height="18"/>
          <rect class="cls-3" x="450" y="924.53" width="18" height="18"/>
          <polygon class="cls-3" points="270 906.53 270 942.53 252 942.53 252 924.53 144 924.53 144 870.53 126 870.53 126 924.53 108 924.53 108 834.53 126 834.53 126 852.53 162 852.53 162 870.53 180 870.53 180 888.53 162 888.53 162 906.53 270 906.53"/>
          <rect class="cls-3" x="540" y="888.53" width="18" height="18"/>
          <rect class="cls-3" x="504" y="888.53" width="18" height="18"/>
          <polygon class="cls-3" points="450 852.53 450 870.53 432 870.53 432 906.53 414 906.53 414 924.53 396 924.53 396 942.53 378 942.53 378 1014.53 342 1014.53 342 1050.53 324 1050.53 324 1068.53 306 1068.53 306 1014.53 324 1014.53 324 996.53 306 996.53 306 978.53 270 978.53 270 942.53 288 942.53 288 924.53 306 924.53 306 888.53 288 888.53 288 870.53 306 870.53 306 852.53 324 852.53 324 870.53 342 870.53 342 906.53 360 906.53 360 924.53 324 924.53 324 942.53 306 942.53 306 960.53 324 960.53 324 978.53 342 978.53 342 996.53 360 996.53 360 978.53 342 978.53 342 960.53 360 960.53 360 924.53 378 924.53 378 906.53 396 906.53 396 888.53 378 888.53 378 870.53 360 870.53 360 852.53 396 852.53 396 870.53 414 870.53 414 834.53 432 834.53 432 852.53 450 852.53"/>
          <rect class="cls-3" x="738" y="870.53" width="36" height="18"/>
          <rect class="cls-3" x="468" y="870.53" width="18" height="36"/>
          <polygon class="cls-3" points="684 816.53 684 834.53 666 834.53 666 852.53 648 852.53 648 870.53 612 870.53 612 852.53 630 852.53 630 816.53 648 816.53 648 798.53 666 798.53 666 816.53 684 816.53"/>
          <rect class="cls-3" x="540" y="852.53" width="18" height="18"/>
          <rect class="cls-3" x="756" y="834.53" width="18" height="18"/>
          <polygon class="cls-3" points="738 834.53 738 870.53 702 870.53 702 852.53 684 852.53 684 834.53 738 834.53"/>
          <polygon class="cls-3" points="522 834.53 522 852.53 504 852.53 504 870.53 486 870.53 486 852.53 450 852.53 450 834.53 468 834.53 468 816.53 486 816.53 486 834.53 522 834.53"/>
          <polygon class="cls-3" points="396 780.53 396 834.53 360 834.53 360 852.53 324 852.53 324 834.53 306 834.53 306 816.53 288 816.53 288 798.53 324 798.53 324 816.53 378 816.53 378 798.53 360 798.53 360 780.53 396 780.53"/>
          <polygon class="cls-3" points="288 708.53 288 744.53 306 744.53 306 762.53 288 762.53 288 780.53 252 780.53 252 834.53 270 834.53 270 816.53 288 816.53 288 834.53 306 834.53 306 852.53 288 852.53 288 870.53 252 870.53 252 888.53 216 888.53 216 870.53 234 870.53 234 852.53 162 852.53 162 834.53 198 834.53 198 816.53 216 816.53 216 834.53 234 834.53 234 816.53 216 816.53 216 798.53 234 798.53 234 780.53 216 780.53 216 762.53 252 762.53 252 744.53 216 744.53 216 726.53 234 726.53 234 708.53 270 708.53 270 690.53 234 690.53 234 672.53 216 672.53 216 654.53 252 654.53 252 600.53 270 600.53 270 654.53 288 654.53 288 690.53 306 690.53 306 708.53 288 708.53"/>
          <rect class="cls-3" x="576" y="816.53" width="18" height="18"/>
          <rect class="cls-3" x="432" y="798.53" width="18" height="36"/>
          <rect class="cls-3" x="594" y="798.53" width="18" height="18"/>
          <polygon class="cls-3" points="558 780.53 558 834.53 540 834.53 540 816.53 504 816.53 504 798.53 540 798.53 540 780.53 558 780.53"/>
          <polygon class="cls-3" points="774 798.53 774 816.53 738 816.53 738 780.53 756 780.53 756 798.53 774 798.53"/>
          <rect class="cls-3" x="414" y="780.53" width="18" height="18"/>
          <path class="cls-3" d="M684,762.53v-54h-18v36h-36v-36h36v-18h-36v-18h18v-36h18v-36h54v-18h-36v-36h-54v18h36v18h-18v36h-18v18h-18v18h-18v18h18v18h-72v-18h-18v36h-18v18h54v18h36v18h-36v18h18v18h18v-18h18v-18h18v18h36v18h18v-18h18v18h18v-18h18v-18h-54ZM612,726.53h-36v-18h36v18Z"/>
          <polygon class="cls-3" points="558 744.53 558 762.53 540 762.53 540 780.53 522 780.53 522 744.53 558 744.53"/>
          <polygon class="cls-3" points="504 762.53 504 798.53 450 798.53 450 780.53 468 780.53 468 762.53 414 762.53 414 744.53 396 744.53 396 762.53 378 762.53 378 744.53 360 744.53 360 762.53 342 762.53 342 780.53 324 780.53 324 744.53 306 744.53 306 726.53 342 726.53 342 708.53 360 708.53 360 726.53 378 726.53 378 708.53 450 708.53 450 744.53 486 744.53 486 762.53 504 762.53"/>
          <polygon class="cls-3" points="162 798.53 162 834.53 126 834.53 126 798.53 108 798.53 108 762.53 126 762.53 126 780.53 144 780.53 144 798.53 162 798.53"/>
          <polygon class="cls-3" points="738 708.53 738 726.53 774 726.53 774 762.53 756 762.53 756 744.53 702 744.53 702 726.53 720 726.53 720 690.53 738 690.53 738 672.53 756 672.53 756 690.53 774 690.53 774 708.53 738 708.53"/>
          <rect class="cls-3" x="108" y="726.53" width="36" height="18"/>
          <polygon class="cls-3" points="216 708.53 216 726.53 198 726.53 198 816.53 180 816.53 180 762.53 162 762.53 162 744.53 180 744.53 180 708.53 216 708.53"/>
          <polygon class="cls-3" points="162 690.53 162 726.53 144 726.53 144 708.53 108 708.53 108 690.53 126 690.53 126 672.53 144 672.53 144 690.53 162 690.53"/>
          <rect class="cls-3" x="684" y="690.53" width="18" height="18"/>
          <path class="cls-3" d="M612,600.53v-36h-18v18h-18v-18h-18v-18h-36v-36h-18v18h-18v-18h18v-54h18v-18h18v-36h-36v36h-36v-36h-72v18h54v18h-18v18h18v18h-18v-18h-36v-36h-18v18h-18v18h18v18h36v18h-54v-36h-36v18h-18v-36h18v-18h18v18h18v-36h-72v54h-18v18h18v54h-18v-36h-18v72h18v-18h54v-18h-18v-36h18v36h18v-18h18v18h-18v18h-18v18h36v-18h18v-36h18v18h18v-18h18v-18h18v18h18v36h-18v-36h-18v54h-36v18h36v18h-36v36h-18v36h54v-36h-18v-18h18v18h36v-54h-18v-18h18v18h18v18h18v-36h36v18h-18v18h-18v18h-18v54h-18v18h-18v18h36v-18h18v-54h18v18h18v-36h18v-18h18v18h-18v18h18v18h18v-18h18v-18h18v-18h-18ZM468,474.53v-18h18v18h-18Z"/>
          <rect class="cls-3" x="216" y="690.53" width="18" height="18"/>
          <rect class="cls-3" x="432" y="672.53" width="18" height="18"/>
          <rect class="cls-3" x="324" y="672.53" width="36" height="18"/>
          <polygon class="cls-3" points="234 618.53 234 636.53 198 636.53 198 690.53 162 690.53 162 654.53 180 654.53 180 636.53 162 636.53 162 618.53 180 618.53 180 600.53 198 600.53 198 618.53 234 618.53"/>
          <rect class="cls-3" x="756" y="654.53" width="18" height="18"/>
          <polygon class="cls-3" points="774 582.53 774 636.53 738 636.53 738 654.53 720 654.53 720 672.53 684 672.53 684 654.53 702 654.53 702 636.53 720 636.53 720 618.53 738 618.53 738 582.53 774 582.53"/>
          <rect class="cls-3" x="540" y="654.53" width="36" height="18"/>
          <rect class="cls-3" x="450" y="654.53" width="18" height="18"/>
          <rect class="cls-3" x="306" y="654.53" width="18" height="18"/>
          <rect class="cls-3" x="666" y="636.53" width="18" height="18"/>
          <rect class="cls-3" x="288" y="636.53" width="18" height="18"/>
          <rect class="cls-3" x="684" y="618.53" width="18" height="18"/>
          <rect class="cls-3" x="324" y="618.53" width="18" height="36"/>
          <rect class="cls-3" x="288" y="600.53" width="18" height="18"/>
          <polygon class="cls-3" points="162 636.53 162 654.53 108 654.53 108 600.53 126 600.53 126 636.53 162 636.53"/>
          <polygon class="cls-3" points="396 582.53 396 600.53 378 600.53 378 618.53 360 618.53 360 600.53 324 600.53 324 582.53 360 582.53 360 564.53 378 564.53 378 582.53 396 582.53"/>
          <rect class="cls-3" x="270" y="582.53" width="18" height="18"/>
          <rect class="cls-3" x="216" y="582.53" width="36" height="18"/>
          <rect class="cls-3" x="144" y="582.53" width="36" height="18"/>
          <rect class="cls-3" x="306" y="564.53" width="18" height="18"/>
          <rect class="cls-3" x="198" y="564.53" width="18" height="18"/>
          <rect class="cls-3" x="108" y="564.53" width="18" height="18"/>
          <rect class="cls-3" x="720" y="546.53" width="54" height="18"/>
          <rect class="cls-3" x="576" y="546.53" width="18" height="18"/>
          <rect class="cls-3" x="378" y="546.53" width="18" height="18"/>
          <rect class="cls-3" x="216" y="546.53" width="18" height="18"/>
          <rect class="cls-3" x="144" y="546.53" width="54" height="18"/>
          <polygon class="cls-3" points="630 492.53 630 546.53 612 546.53 612 510.53 594 510.53 594 528.53 576 528.53 576 510.53 558 510.53 558 528.53 540 528.53 540 510.53 522 510.53 522 492.53 558 492.53 558 456.53 576 456.53 576 492.53 630 492.53"/>
          <rect class="cls-3" x="558" y="528.53" width="18" height="18"/>
          <rect class="cls-3" x="594" y="456.53" width="18" height="18"/>
          <rect class="cls-3" x="540" y="438.53" width="18" height="18"/>
          <rect class="cls-3" x="252" y="402.53" width="18" height="54"/>
          <polygon class="cls-3" points="612 420.53 612 438.53 594 438.53 594 456.53 576 456.53 576 438.53 558 438.53 558 402.53 594 402.53 594 420.53 612 420.53"/>
          <path class="cls-3" d="M648,402.53v126h126v-126h-126ZM756,510.53h-90v-90h90v90Z"/>
          <rect class="cls-3" x="684" y="438.53" width="54" height="54"/>
          <rect class="cls-3" x="612" y="402.53" width="18" height="18"/>
          <path class="cls-3" d="M108,402.53v126h126v-126h-126ZM216,510.53h-90v-90h90v90Z"/>
          <rect class="cls-3" x="144" y="438.53" width="54" height="54"/>
        </g>
      </g>
    </g>
  </g>
</svg>